<svg id="Layer_1" data-name="Layer 1" xmlns="http://www.w3.org/2000/svg" viewBox="0 0 342 342"><title>Continental symbol logo - Brandlogos.net</title><path d="M122.8,205.2c-9.3-4.2-12.3-13.2-7.7-22.2a19.21,19.21,0,0,1,6.5-7.9l4.8,2.6-1.3,2.4a9.71,9.71,0,0,0-5.2,5.1c-2.7,5.3-.6,9.9,5.9,13,7.1,3.3,11.5,2.4,14-2.5a10.1,10.1,0,0,0,.6-8.4c.3-.6.7-1.3,1-2l4.8,2.6a16.9,16.9,0,0,1-1.9,10.5c-4,8.1-12.1,11.1-21.5,6.8" transform="translate(-85 -85)" style="fill:orange"/><path d="M153.8,157c-5.9-5.3-11-5.1-14.2-1.4s-2.7,8.7,3.4,13.8,10.9,4.8,14,1.2,2.7-8.3-3.2-13.6m-15.6,18.1c-8.2-6.7-8.1-16.2-2.4-22.8s15-8.1,22.8-.9,7.4,16.5,2.1,22.6-14.3,7.9-22.5,1.1" transform="translate(-85 -85)" style="fill:orange"/><path d="M156.3,133.5c2.2-1.7,4.6-3.4,6.9-4.9,7.1,3.2,14.4,6.6,21.5,10h0c-.3-.8-9.9-15.5-11-17.1,1.7-1.2,3.5-2.3,5.3-3.4l16.9,26.7q-2.7,1.5-5.4,3.3c-7.8-3.9-16.2-7.8-24.2-11.4l-.1.1,13.3,18.8a55.52,55.52,0,0,0-4.6,3.5Z" transform="translate(-85 -85)" style="fill:orange"/><path d="M213.9,137c-2.1.7-4.1,1.5-6.1,2.3l-10-24.8c-2.8,1.2-5.6,2.3-8.3,3.7l-2.1-4.6a176.32,176.32,0,0,1,24.8-9.5l1.4,4.8c-2.9.8-5.8,1.8-8.7,2.9Z" transform="translate(-85 -85)" style="fill:orange"/><path d="M227.6,133l-6.4-31c2.4-.6,4.9-1.1,7.3-1.5l6,31.1Z" transform="translate(-85 -85)" style="fill:orange"/><path d="M243,98.6c2.8-.1,5.7-.2,8.5-.1,3.9,6.7,8,13.7,11.9,20.5h.1c.2-.9.7-18.4.8-20.3q3.15,0,6.3.3l-1.5,31.6c-2-.2-4.2-.3-6.3-.3-4.2-7.7-8.8-15.7-13.3-23.2h-.1l.2,23a55.24,55.24,0,0,0-5.8.2Z" transform="translate(-85 -85)" style="fill:orange"/><path d="M285.3,100.7c7.3,1.6,14.5,3.4,21.6,5.6l-1.4,4.9c-4.7-1.4-9.5-2.7-14.2-3.8l-1.9,7.8c3.3.8,6.7,1.7,10,2.6l-1.3,4.7c-3.3-.9-6.5-1.8-9.8-2.6l-2.1,8.4c4.7,1.1,9.3,2.4,13.8,3.7l-1.4,4.8c-6.7-1.9-13.5-3.7-20.3-5.2Z" transform="translate(-85 -85)" style="fill:orange"/><path d="M319.1,111.3c2.6,1.2,5.1,2.5,7.6,3.9.4,7.7.8,15.8,1.1,23.7h0c.6-.6,9.1-15.9,10.1-17.6,1.9,1,3.7,2,5.4,3.1l-16,27.3c-1.7-1.1-3.5-2.2-5.4-3.2-.1-8.8-.6-18-1-26.8l-.1-.1-10.5,20.5c-1.7-.9-3.5-1.8-5.2-2.5Z" transform="translate(-85 -85)" style="fill:orange"/><path d="M342.1,163.7c-1.6-1.5-3.2-2.9-4.9-4.3L354.6,139c-2.3-1.9-4.7-3.9-7.1-5.7l3-4a175.12,175.12,0,0,1,19.9,17.6l-3.6,3.5c-2.1-2.2-4.3-4.3-6.6-6.4Z" transform="translate(-85 -85)" style="fill:orange"/><path d="M363.6,167.9c1.6,2,3.2,4.2,4.8,6.2,2.2-3.3,4.8-7,7.1-10.5l-.1-.1c-3.8,1.4-7.9,2.9-11.8,4.4m-14.4-.8c9.8-3.6,19.9-7,29.9-10.2,1.6,2,3.2,4,4.7,6.1-5.7,9-11.5,17.8-17.6,26.3l-1.5,1.1-4-5.4c1.6-2.3,3.1-4.5,4.7-6.8-2.1-2.8-4.4-5.8-6.6-8.6l-7.7,2.9-3.5-4.3Z" transform="translate(-85 -85)" style="fill:orange"/><path d="M375.6,212.7c-2.7-6.1-5.5-12.2-8.5-18.1l28.4-14c1.1,2.2,2.2,4.4,3.2,6.7l-24.1,11.5c1.9,3.9,3.7,7.9,5.5,11.9Z" transform="translate(-85 -85)" style="fill:orange"/><path d="M136.1,356.9l4-3.6c.6.6,1.1,1.2,1.6,1.8-.1,2.1.6,4.9,3.3,7.8,2.9,2.9,5.3,3.3,7,1.5,2.4-2.4.3-5-1.5-8.4-2.9-5.6-2.9-9.2,1-12.8,4.5-4.1,9.8-2.8,14.2,1.6a17,17,0,0,1,4.5,7.5l-3.5,3.6-1.5-1.5a10.58,10.58,0,0,0-2.9-5.9c-2.4-2.4-4.4-3-6.3-1.3s-1,3.8,1,7.2c3.7,6.2,4.4,9.8.3,14.1-4.3,4.5-9.9,4-15.7-2a19.56,19.56,0,0,1-5.5-9.6" transform="translate(-85 -85)" style="fill:orange"/><path d="M159,382.2l19-25.3,5.5,4.1-18.6,25.6c-2-1.4-4-2.9-5.9-4.4" transform="translate(-85 -85)" style="fill:orange"/><path d="M190.2,365.6c2.3,1.3,4.6,2.5,7,3.6.6,7.8,1.3,15.6,2.1,23.5l.1.1,8.4-18.5c1.7.9,3.7,1.6,5.4,2.3l-12.7,29c-2-.8-4.2-1.7-6.2-2.7-1.1-9-1.9-18.1-2.6-26.8l-.1-.1-10.3,20.6a47.53,47.53,0,0,1-5.5-2.8Z" transform="translate(-85 -85)" style="fill:orange"/><path d="M214.6,393.9c2.3-9.1,8.8-13.8,16-13.3,3.8.3,8.3,1.8,10.4,3.8l-.7,5.3-2.4-.4a8.42,8.42,0,0,0-5.8-3.3c-5.1-.9-8.8,2.2-10.4,9.3-1.7,7.6.4,11.9,6,12.9a10.09,10.09,0,0,0,8.4-1.9l2.3.3-.7,5.3c-2.8,1.5-6.5,2.2-11.2,1.4-9.8-1.9-14.4-9.5-11.9-19.4" transform="translate(-85 -85)" style="fill:orange"/><path d="M248,383.7c6.8.1,13.7,0,20.5-.3l.3,5.1q-6.9.3-13.8.3v8.1c3.4,0,6.8,0,10.2-.2l.2,4.8c-3.4.2-6.9.3-10.3.2v8.7c5.1.1,10.2-.1,15.3-.4l.3,5a218.27,218.27,0,0,1-22.9.4Z" transform="translate(-85 -85)" style="fill:orange"/><path d="M298.1,409.3l-6.6-22.8-3,2.9-1.7.5-1.2-4.4c2-2.2,4.1-4.4,6.1-6.6l4.4-1.3,8.8,29.6c-2.3.8-4.6,1.5-6.8,2.1" transform="translate(-85 -85)" style="fill:orange"/><path d="M326.8,387.9c-1.3-2.5-3.9-3.7-7.3-2.1s-4.1,4.5-2.8,7.1,3.9,3.7,7.3,2,4.1-4.4,2.8-7m-7.1-11.6c-1.1-2.3-3.3-2.8-5.7-1.6s-3.3,3.2-2.2,5.5,3.2,2.8,5.7,1.6,3.4-3.2,2.2-5.5m-9,20.1c-1.7-3.5-.7-6.9,2.3-9.7l-.1-.2c-3.3.4-5.8-.7-7.2-3.6-2.2-4.6.4-9.3,6.3-12.2s11.2-2.2,13.6,2.4c1.5,3,.9,5.6-1.5,7.9l.1.2c4-.7,7.3.5,9.1,4.1,2.6,5.1.1,10.2-7.2,13.8s-12.9,2.4-15.4-2.7" transform="translate(-85 -85)" style="fill:orange"/><path d="M344.9,384.5c-.9-8.7-3.3-17.5-4.8-24.5l-.1-.1a79.07,79.07,0,0,1-11.6,8.6l-3.1-4.7a112.55,112.55,0,0,0,15.5-12l4,4.3c2.7,8.6,5.4,17.2,7.6,26.2l-6.1,4.5Z" transform="translate(-85 -85)" style="fill:orange"/><path d="M371.1,365.3l-17.5-16-1,4-1.2,1.3-3.4-3.1,1.8-8.7,3.1-3.4,23,20.7c-1.6,1.7-3.2,3.4-4.8,5.2" transform="translate(-85 -85)" style="fill:orange"/><path d="M256,85C161.6,85,85,161.6,85,256s76.6,171,171,171,171-76.6,171-171S350.4,85,256,85m0,4c92.1,0,167,74.9,167,167S348.1,423,256,423,89,348.1,89,256,163.9,89,256,89" transform="translate(-85 -85)" style="fill:orange"/><path d="M256,137.6A118.4,118.4,0,1,0,374.4,256,118.52,118.52,0,0,0,256,137.6m0,3.8A114.6,114.6,0,1,1,141.4,256,114.59,114.59,0,0,1,256,141.4" transform="translate(-85 -85)" style="fill:orange"/><path d="M325.9,260.3s-9.4-6.4-10.8-7.4-2.2-.2-2.2-.2a61.52,61.52,0,0,1,4,11.4l2.2,32.8c4,3.9,10.3,7.4,14.7,9.4-.1-10.3-3.1-39-7.9-46m-4.6,76H190.8a61.28,61.28,0,0,0,8,5.9H313.3a48.84,48.84,0,0,0,8-5.9m-40.6-44.6-16.9,16.2c-3.5,1.7-10.5,7.9-11.2,12.9H266c.9-1.8,2-4.8,3.5-6.6l18.2-15.5Zm-84.9-75.4,2.8-1.3,9.9-10.1a1.45,1.45,0,0,0-1.3-.4c-.6.2-14,3.9-14,3.9s-6.3,2.4-9,4.2-5.9,5-6.1,6.6l12,2.8a76.51,76.51,0,0,1,5.7-5.7m59.5-60.9c2.6,0,7.9,6.1,9.6,7.7,1.1,1.3,7.7,10.1,8.5,12.5,1.8,7.9-1.1,28.3-5.2,36.1a218,218,0,0,0,20.4,25.8c5.5,4.6,23,8.6,23,24.7,0,8.8-5.5,16.2-8.1,19.1l5.2,17.3c.5,1.7.5,2.2-.4,3.3l-18,20.1-1.6,8.6H273.6c-.4-5,4-10.3,8.6-13.2L295.3,301l-22.1-22.6a98.16,98.16,0,0,1-3.7-14.2c-7.6-4.4-23.2-14.9-26.3-18.8-4.8-5.5-9.8-14.7-9.8-14.7l-18-12.7-6.8,5s-.2,10.9-.2,11.2a36.73,36.73,0,0,0,2.9,7.4l-7,10.1s-4.2-4.4-4.2-13.8c0-2.2.2-4.2.2-4.2l.4-13.1a3.15,3.15,0,0,1,.9-2.4l10.7-11.6a2.31,2.31,0,0,1,2.4-.7l14.5,4.6,11.6-8.3,10.1-15.3c-2.8-.4-13.1,2.2-16.4,2.8a13.85,13.85,0,0,1-4.4-2.6,69.85,69.85,0,0,1-.4-7.4c8.5-6.3,17.8-12.5,25-17.1l-.7-6.8a2,2,0,0,1,1.3-.4" transform="translate(-85 -85)" style="fill:orange"/></svg>